<svg width="120" height="120" viewBox="0 0 120 120" fill="none" xmlns="http://www.w3.org/2000/svg">
<mask id="mask0" mask-type="alpha" maskUnits="userSpaceOnUse" x="0" y="0" width="120" height="120">
<path d="M120 60C120 93.1371 93.1371 120 60 120C26.8629 120 0 93.1371 0 60C0 26.8629 26.8629 0 60 0C93.1371 0 120 26.8629 120 60Z" fill="url(#paint0_linear)"/>
</mask>
<g mask="url(#mask0)">
<path d="M120 60C120 93.1371 93.1371 120 60 120C26.8629 120 0 93.1371 0 60C0 26.8629 26.8629 0 60 0C93.1371 0 120 26.8629 120 60Z" fill="url(#paint1_linear)"/>
<path fill-rule="evenodd" clip-rule="evenodd" d="M6.93732 7.5355C3.03907 6.13518 -1.25627 8.16016 -2.65659 12.0584L-5.19213 19.117L101.86 57.5719L97.2117 70.5123L-9.84055 32.0574L-18.7147 56.7617C-20.1151 60.66 -18.0901 64.9553 -14.1918 66.3556L78.744 99.7397C82.6422 101.14 86.9376 99.115 88.3379 95.2168L104.396 50.5135C105.796 46.6152 103.771 42.3199 99.8731 40.9196L6.93732 7.5355Z" fill="white" fill-opacity="0.4"/>
<path fill-rule="evenodd" clip-rule="evenodd" d="M-5.00933 11.2132C-3.14224 6.01555 2.58489 3.31558 7.78256 5.18267L100.718 38.5667C105.916 40.4338 108.616 46.1609 106.749 51.3586L90.6908 96.0619C88.8237 101.26 83.0966 103.96 77.8989 102.092L-15.0369 68.7084C-20.2346 66.8413 -22.9346 61.1142 -21.0675 55.9165L-5.00933 11.2132ZM6.09223 9.88828C3.49339 8.95473 0.629829 10.3047 -0.303715 12.9036L-16.3619 57.6069C-17.2954 60.2057 -15.9454 63.0693 -13.3466 64.0028L79.5892 97.3869C82.1881 98.3204 85.0516 96.9704 85.9852 94.3716L102.043 49.6683C102.977 47.0694 101.627 44.2059 99.028 43.2723L6.09223 9.88828Z" fill="white"/>
<path fill-rule="evenodd" clip-rule="evenodd" d="M47.6778 75.2982C48.1446 73.9988 49.5763 73.3238 50.8758 73.7906L60.287 77.1713C61.5864 77.638 62.2614 79.0698 61.7946 80.3692C61.3278 81.6687 59.8961 82.3436 58.5966 81.8769L49.1854 78.4962C47.886 78.0294 47.211 76.5977 47.6778 75.2982Z" fill="white"/>
<path fill-rule="evenodd" clip-rule="evenodd" d="M66.5005 82.0596C66.9673 80.7602 68.3991 80.0852 69.6985 80.552L79.1097 83.9326C80.4091 84.3994 81.0841 85.8312 80.6174 87.1306C80.1506 88.43 78.7188 89.105 77.4194 88.6382L68.0082 85.2576C66.7088 84.7908 66.0338 83.359 66.5005 82.0596Z" fill="white"/>
</g>
<defs>
<linearGradient id="paint0_linear" x1="30.1895" y1="12.6316" x2="88.6105" y2="109.737" gradientUnits="userSpaceOnUse">
<stop stop-color="#E6764D"/>
<stop offset="1" stop-color="#FFA825"/>
</linearGradient>
<linearGradient id="paint1_linear" x1="30.1895" y1="12.6316" x2="88.6105" y2="109.737" gradientUnits="userSpaceOnUse">
<stop stop-color="#E6764D"/>
<stop offset="1" stop-color="#FFA825"/>
</linearGradient>
</defs>
</svg>
