<svg width="120" height="120" viewBox="0 0 120 120" fill="none" xmlns="http://www.w3.org/2000/svg">
<mask id="mask0" mask-type="alpha" maskUnits="userSpaceOnUse" x="0" y="0" width="120" height="120">
<path d="M120 60C120 93.1371 93.1371 120 60 120C26.8629 120 0 93.1371 0 60C0 26.8629 26.8629 0 60 0C93.1371 0 120 26.8629 120 60Z" fill="url(#paint0_linear)"/>
</mask>
<g mask="url(#mask0)">
<path d="M120 60C120 93.1371 93.1371 120 60 120C26.8629 120 0 93.1371 0 60C0 26.8629 26.8629 0 60 0C93.1371 0 120 26.8629 120 60Z" fill="url(#paint1_linear)"/>
<path d="M50.6998 4.27266L51.5895 -5.27725C51.6258 -5.66624 52.0977 -5.83842 52.3759 -5.56416L60.4569 2.40124C70.8731 12.6686 79.4066 24.6843 85.669 37.9016L90.0439 47.135C90.2951 47.6652 91.091 47.4862 91.091 46.8995C91.091 41.0229 90.5337 35.1596 89.4267 29.3883L88.676 25.4749C88.6179 25.172 88.9985 24.988 89.1998 25.2215C111.565 51.1654 110.345 89.9129 86.392 114.398L74.8493 126.197C74.5594 126.494 74.0707 126.183 74.2168 125.795L75.1122 123.415C79.1703 112.629 78.7149 100.664 73.8489 90.2189L73.6299 89.7487C73.6044 89.6939 73.5306 89.6843 73.4918 89.7306C67.7303 96.6213 56.5085 92.3904 56.7303 83.4112L56.9266 75.4648C56.9292 75.3607 56.7964 75.315 56.7344 75.3987L50.4463 83.8833C42.2731 94.9115 40.6343 109.473 46.1517 122.042C46.2302 122.221 46.0221 122.389 45.861 122.278C17.1893 102.6 12.3156 61.8931 35.8569 36.2977L37.034 35.0179C44.8307 26.5409 49.6314 15.7403 50.6998 4.27266Z" fill="white" fill-opacity="0.4"/>
<path fill-rule="evenodd" clip-rule="evenodd" d="M53.6802 -0.768212L53.1889 4.50448C52.0691 16.5242 46.935 27.9457 38.773 36.82C15.8721 61.7191 20.0031 101.499 47.84 120.604L45.0106 124.727C14.6099 103.862 10.1771 60.5251 35.0928 33.4352C42.5242 25.3555 47.1935 14.9563 48.2105 4.04065L49.1002 -5.50926C49.3321 -7.99773 52.3509 -9.09916 54.1308 -7.34471L62.2118 0.620697C72.8363 11.0934 81.5405 23.3494 87.9282 36.831L88.0594 37.1079C87.795 34.6793 87.4321 32.2611 86.9714 29.8592L86.2207 25.9457C85.6803 23.1288 89.2204 21.4166 91.0933 23.5891C114.307 50.5164 113.041 90.7329 88.179 116.147L75.3621 129.248C74.3965 130.235 72.8137 130.253 71.8267 129.287C70.8398 128.321 70.8224 126.739 71.7879 125.752L84.6049 112.65C105.502 91.2891 108.415 58.6461 92.7337 34.1353C93.3043 38.3641 93.5909 42.6283 93.5909 46.8994C93.5909 50.153 89.1777 51.1456 87.7846 48.2053L83.4097 38.9719C77.2725 26.0189 68.9097 14.2436 58.7018 4.18159L53.6802 -0.768212Z" fill="white"/>
<path fill-rule="evenodd" clip-rule="evenodd" d="M46.5349 42.4016C47.6248 43.2493 47.8211 44.82 46.9734 45.9098L43.7456 50.0599C40.3368 54.4426 37.9438 59.5277 36.7393 64.9478L36.1905 67.4173C35.891 68.7652 34.5556 69.615 33.2077 69.3155C31.8599 69.0159 31.0101 67.6805 31.3096 66.3327L31.8584 63.8631C33.2234 57.7203 35.9355 51.9573 39.7988 46.9902L43.0267 42.8401C43.8743 41.7503 45.445 41.5539 46.5349 42.4016Z" fill="white"/>
</g>
<defs>
<linearGradient id="paint0_linear" x1="30.1895" y1="12.6316" x2="88.6105" y2="109.737" gradientUnits="userSpaceOnUse">
<stop stop-color="#E6764D"/>
<stop offset="1" stop-color="#FFA825"/>
</linearGradient>
<linearGradient id="paint1_linear" x1="30.1895" y1="12.6316" x2="88.6105" y2="109.737" gradientUnits="userSpaceOnUse">
<stop stop-color="#E6764D"/>
<stop offset="1" stop-color="#FFA825"/>
</linearGradient>
</defs>
</svg>
