<svg width="120" height="120" viewBox="0 0 120 120" fill="none" xmlns="http://www.w3.org/2000/svg">
<mask id="mask0" mask-type="alpha" maskUnits="userSpaceOnUse" x="0" y="0" width="120" height="120">
<path d="M120 60C120 93.1371 93.1371 120 60 120C26.8629 120 0 93.1371 0 60C0 26.8629 26.8629 0 60 0C93.1371 0 120 26.8629 120 60Z" fill="url(#paint0_linear)"/>
</mask>
<g mask="url(#mask0)">
<path d="M120 60C120 93.1371 93.1371 120 60 120C26.8629 120 0 93.1371 0 60C0 26.8629 26.8629 0 60 0C93.1371 0 120 26.8629 120 60Z" fill="url(#paint1_linear)"/>
<path fill-rule="evenodd" clip-rule="evenodd" d="M22.5 31.0938C21.8096 31.0938 21.25 31.6535 21.25 32.3438V69.4775C21.25 84.7036 28.364 99.0553 40.4816 108.275L59.2431 122.549C59.6903 122.889 60.3097 122.889 60.7569 122.549L79.5184 108.275C91.6359 99.0553 98.75 84.7036 98.75 69.4775V32.3438C98.75 31.6535 98.1904 31.0938 97.5 31.0938H95.5731C85.0866 31.0938 74.9115 27.5302 66.7165 20.9874L60.7799 16.2478C60.3237 15.8836 59.6763 15.8836 59.2201 16.2478L53.2835 20.9874C45.0885 27.5302 34.9134 31.0938 24.4269 31.0938H22.5ZM60 92.5C74.4975 92.5 86.25 80.7475 86.25 66.25C86.25 51.7526 74.4975 40 60 40C45.5025 40 33.75 51.7526 33.75 66.25C33.75 80.7475 45.5025 92.5 60 92.5Z" fill="white" fill-opacity="0.4"/>
<path fill-rule="evenodd" clip-rule="evenodd" d="M57.6603 14.294C59.0288 13.2015 60.9712 13.2015 62.3397 14.294L68.2763 19.0337C76.0283 25.2228 85.6535 28.5938 95.5731 28.5938H97.5C99.5711 28.5938 101.25 30.2728 101.25 32.3438V69.4775C101.25 85.4845 93.7711 100.572 81.0321 110.264L62.2706 124.539C60.929 125.56 59.071 125.56 57.7294 124.539L38.9678 110.264C26.2289 100.572 18.75 85.4844 18.75 69.4775V32.3438C18.75 30.2728 20.4289 28.5938 22.5 28.5938H24.4269C34.3465 28.5938 43.9717 25.2228 51.7237 19.0337L57.6603 14.294ZM60 18.8241L54.8433 22.9411C46.2054 29.8376 35.4802 33.5938 24.4269 33.5938H23.75V69.4775C23.75 83.9228 30.4992 97.5385 41.9954 106.285L60 119.984L78.0046 106.285C89.5008 97.5385 96.25 83.9228 96.25 69.4775V33.5938H95.5731C84.5198 33.5938 73.7946 29.8376 65.1567 22.9411L60 18.8241Z" fill="white"/>
<path fill-rule="evenodd" clip-rule="evenodd" d="M73.0113 56.9758C73.9912 57.9486 73.9969 59.5315 73.0242 60.5113L57.7792 75.8677C56.3126 77.3451 53.9233 77.3451 52.4566 75.8677L45.7258 69.0877C44.7531 68.1078 44.7588 66.5249 45.7387 65.5522C46.7185 64.5794 48.3014 64.5852 49.2742 65.5651L55.1179 71.4515L69.4758 56.9887C70.4486 56.0088 72.0315 56.0031 73.0113 56.9758Z" fill="white"/>
</g>
<defs>
<linearGradient id="paint0_linear" x1="30.1895" y1="12.6316" x2="88.6105" y2="109.737" gradientUnits="userSpaceOnUse">
<stop stop-color="#E6764D"/>
<stop offset="1" stop-color="#FFA825"/>
</linearGradient>
<linearGradient id="paint1_linear" x1="30.1895" y1="12.6316" x2="88.6105" y2="109.737" gradientUnits="userSpaceOnUse">
<stop stop-color="#E6764D"/>
<stop offset="1" stop-color="#FFA825"/>
</linearGradient>
</defs>
</svg>
