<svg width="200" height="200" viewBox="0 0 200 200" fill="none" xmlns="http://www.w3.org/2000/svg">
<mask id="mask0" mask-type="alpha" maskUnits="userSpaceOnUse" x="20" y="20" width="160" height="160">
<path d="M180 100C180 144.183 144.183 180 100 180C55.8172 180 20 144.183 20 100C20 55.8172 55.8172 20 100 20C144.183 20 180 55.8172 180 100Z" fill="url(#paint0_linear)"/>
</mask>
<g mask="url(#mask0)">
<path d="M180 100C180 144.183 144.183 180 100 180C55.8172 180 20 144.183 20 100C20 55.8172 55.8172 20 100 20C144.183 20 180 55.8172 180 100Z" fill="url(#paint1_linear)"/>
<path fill-rule="evenodd" clip-rule="evenodd" d="M47.5848 68.6485C47.0779 65.0016 49.6233 61.6344 53.2702 61.1275L174.685 44.251C178.332 43.7441 181.699 46.2895 182.206 49.9363L199.082 171.351C199.589 174.998 197.044 178.365 193.397 178.872L71.9823 195.749C68.3355 196.256 64.9682 193.71 64.4613 190.063L47.5848 68.6485ZM118.251 76.4739C117.998 74.6504 119.271 72.9668 121.094 72.7133L150.808 68.5831C152.632 68.3296 154.316 69.6024 154.569 71.4258L158.699 101.14C158.953 102.964 157.68 104.647 155.857 104.901L126.142 109.031C124.319 109.284 122.635 108.012 122.382 106.188L118.251 76.4739ZM127.519 118.936C125.696 119.189 124.423 120.873 124.676 122.696L128.807 152.41C129.06 154.234 130.744 155.507 132.567 155.253L162.281 151.123C164.105 150.869 165.377 149.186 165.124 147.362L160.994 117.648C160.74 115.825 159.057 114.552 157.233 114.805L127.519 118.936ZM72.0292 82.8987C71.7757 81.0753 73.0484 79.3916 74.8718 79.1382L104.586 75.0079C106.41 74.7545 108.093 76.0272 108.347 77.8506L112.477 107.565C112.73 109.388 111.458 111.072 109.634 111.325L79.9199 115.456C78.0965 115.709 76.4129 114.436 76.1594 112.613L72.0292 82.8987ZM81.2967 125.36C79.4733 125.614 78.2005 127.298 78.454 129.121L82.5842 158.835C82.8377 160.659 84.5213 161.931 86.3448 161.678L116.059 157.548C117.882 157.294 119.155 155.611 118.902 153.787L114.772 124.073C114.518 122.249 112.834 120.977 111.011 121.23L81.2967 125.36Z" fill="white" fill-opacity="0.4"/>
<path fill-rule="evenodd" clip-rule="evenodd" d="M108.213 132.665C109.699 133.753 110.021 135.839 108.933 137.324L100.341 149.053C98.6742 151.328 95.4566 151.775 93.2325 150.041L88.5335 146.376C87.0818 145.244 86.8227 143.15 87.9548 141.698C89.0869 140.246 91.1815 139.987 92.6332 141.119L95.9778 143.727L103.555 133.385C104.642 131.899 106.728 131.577 108.213 132.665Z" fill="white"/>
<path fill-rule="evenodd" clip-rule="evenodd" d="M101.788 86.4432C103.273 87.5311 103.595 89.6169 102.507 91.102L93.9156 102.831C92.2489 105.106 89.0313 105.553 86.8072 103.819L82.1082 100.154C80.6565 99.022 80.3974 96.9274 81.5295 95.4757C82.6616 94.024 84.7562 93.7649 86.2079 94.897L89.5525 97.5053L97.1292 87.1624C98.2172 85.6773 100.303 85.3553 101.788 86.4432Z" fill="white"/>
<path fill-rule="evenodd" clip-rule="evenodd" d="M44.283 69.1074C43.5226 63.6372 47.3408 58.5862 52.811 57.8259L174.226 40.9494C179.696 40.189 184.747 44.0072 185.507 49.4774L202.384 170.892C203.144 176.363 199.326 181.413 193.856 182.174L72.441 199.05C66.9708 199.811 61.9198 195.993 61.1595 190.522L44.283 69.1074ZM53.7289 64.4291C51.9054 64.6825 50.6327 66.3662 50.8862 68.1896L67.7627 189.604C68.0161 191.428 69.6998 192.701 71.5232 192.447L192.938 175.571C194.761 175.317 196.034 173.634 195.781 171.81L178.904 50.3953C178.651 48.5718 176.967 47.2991 175.144 47.5526L53.7289 64.4291Z" fill="white"/>
</g>
<defs>
<linearGradient id="paint0_linear" x1="60.2526" y1="36.8421" x2="138.147" y2="166.316" gradientUnits="userSpaceOnUse">
<stop stop-color="#E6764D"/>
<stop offset="1" stop-color="#FFA825"/>
</linearGradient>
<linearGradient id="paint1_linear" x1="60.2526" y1="36.8421" x2="138.147" y2="166.316" gradientUnits="userSpaceOnUse">
<stop stop-color="#E6764D"/>
<stop offset="1" stop-color="#FFA825"/>
</linearGradient>
</defs>
</svg>
