<svg width="120" height="120" viewBox="0 0 120 120" fill="none" xmlns="http://www.w3.org/2000/svg">
<mask id="mask0" mask-type="alpha" maskUnits="userSpaceOnUse" x="0" y="0" width="120" height="120">
<path d="M120 60C120 93.1371 93.1371 120 60 120C26.8629 120 0 93.1371 0 60C0 26.8629 26.8629 0 60 0C93.1371 0 120 26.8629 120 60Z" fill="url(#paint0_linear)"/>
</mask>
<g mask="url(#mask0)">
<path d="M120 60C120 93.1371 93.1371 120 60 120C26.8629 120 0 93.1371 0 60C0 26.8629 26.8629 0 60 0C93.1371 0 120 26.8629 120 60Z" fill="url(#paint1_linear)"/>
<path fill-rule="evenodd" clip-rule="evenodd" d="M20.6884 36.4863C20.3082 33.7512 22.2173 31.2257 24.9524 30.8456L116.014 18.1882C118.749 17.808 121.274 19.7171 121.654 22.4522L134.312 113.513C134.692 116.248 132.783 118.774 130.048 119.154L38.9865 131.811C36.2514 132.192 33.7259 130.283 33.3457 127.547L20.6884 36.4863ZM73.6884 42.3554C73.4983 40.9878 74.4528 39.7251 75.8204 39.535L98.1061 36.4373C99.4737 36.2472 100.736 37.2017 100.926 38.5693L104.024 60.855C104.214 62.2226 103.26 63.4853 101.892 63.6754L79.6064 66.7731C78.2389 66.9632 76.9761 66.0087 76.786 64.6411L73.6884 42.3554ZM80.639 74.2017C79.2714 74.3918 78.3169 75.6545 78.507 77.0221L81.6047 99.3078C81.7947 100.675 83.0575 101.63 84.425 101.44L106.711 98.3421C108.078 98.152 109.033 96.8893 108.843 95.5217L105.745 73.236C105.555 71.8684 104.292 70.9139 102.925 71.104L80.639 74.2017ZM39.0216 47.174C38.8315 45.8064 39.7861 44.5437 41.1536 44.3536L63.4394 41.2559C64.807 41.0658 66.0697 42.0204 66.2598 43.3879L69.3575 65.6737C69.5475 67.0412 68.593 68.304 67.2254 68.494L44.9397 71.5917C43.5721 71.7818 42.3094 70.8273 42.1193 69.4597L39.0216 47.174ZM45.9723 79.0203C44.6047 79.2104 43.6502 80.4731 43.8403 81.8407L46.9379 104.126C47.128 105.494 48.3908 106.449 49.7583 106.258L72.0441 103.161C73.4116 102.971 74.3662 101.708 74.1761 100.34L71.0784 78.0546C70.8883 76.6871 69.6256 75.7325 68.258 75.9226L45.9723 79.0203Z" fill="white" fill-opacity="0.4"/>
<path fill-rule="evenodd" clip-rule="evenodd" d="M66.1602 84.499C67.274 85.315 67.5155 86.8794 66.6996 87.9932L60.2558 96.7896C59.0057 98.496 56.5926 98.8314 54.9245 97.5306L51.4002 94.7822C50.3115 93.9331 50.1171 92.3622 50.9662 91.2734C51.8153 90.1847 53.3862 89.9903 54.475 90.8394L56.9835 92.7957L62.666 85.0384C63.482 83.9246 65.0463 83.6831 66.1602 84.499Z" fill="white"/>
<path fill-rule="evenodd" clip-rule="evenodd" d="M61.3413 49.8324C62.4552 50.6483 62.6966 52.2127 61.8807 53.3266L55.4369 62.123C54.1869 63.8294 51.7737 64.1648 50.1057 62.864L46.5814 60.1156C45.4926 59.2665 45.2983 57.6956 46.1474 56.6068C46.9964 55.518 48.5674 55.3237 49.6562 56.1728L52.1646 58.129L57.8472 50.3718C58.6631 49.258 60.2275 49.0165 61.3413 49.8324Z" fill="white"/>
<path fill-rule="evenodd" clip-rule="evenodd" d="M18.2122 36.8306C17.642 32.7279 20.5056 28.9397 24.6083 28.3694L115.669 15.7121C119.772 15.1418 123.56 18.0054 124.131 22.1081L136.788 113.169C137.358 117.272 134.495 121.06 130.392 121.63L39.3308 134.288C35.2281 134.858 31.4399 131.994 30.8696 127.892L18.2122 36.8306ZM25.2966 33.3218C23.9291 33.5119 22.9745 34.7746 23.1646 36.1422L35.822 127.203C36.0121 128.571 37.2748 129.525 38.6424 129.335L129.703 116.678C131.071 116.488 132.026 115.225 131.836 113.858L119.178 22.7964C118.988 21.4289 117.725 20.4744 116.358 20.6644L25.2966 33.3218Z" fill="white"/>
</g>
<defs>
<linearGradient id="paint0_linear" x1="30.1895" y1="12.6316" x2="88.6105" y2="109.737" gradientUnits="userSpaceOnUse">
<stop stop-color="#E6764D"/>
<stop offset="1" stop-color="#FFA825"/>
</linearGradient>
<linearGradient id="paint1_linear" x1="30.1895" y1="12.6316" x2="88.6105" y2="109.737" gradientUnits="userSpaceOnUse">
<stop stop-color="#E6764D"/>
<stop offset="1" stop-color="#FFA825"/>
</linearGradient>
</defs>
</svg>
