<svg width="200" height="200" viewBox="0 0 200 200" fill="none" xmlns="http://www.w3.org/2000/svg">
<mask id="mask0" mask-type="alpha" maskUnits="userSpaceOnUse" x="20" y="20" width="160" height="160">
<path d="M180 100C180 144.183 144.183 180 100 180C55.8172 180 20 144.183 20 100C20 55.8172 55.8172 20 100 20C144.183 20 180 55.8172 180 100Z" fill="url(#paint0_linear)"/>
</mask>
<g mask="url(#mask0)">
<path d="M180 100C180 144.183 144.183 180 100 180C55.8172 180 20 144.183 20 100C20 55.8172 55.8172 20 100 20C144.183 20 180 55.8172 180 100Z" fill="url(#paint1_linear)"/>
<path d="M87.5995 25.697L88.7859 12.9638C88.8342 12.4451 89.4634 12.2155 89.8344 12.5812L100.609 23.2017C114.497 36.8915 125.875 52.9124 134.225 70.5355L140.058 82.8467C140.393 83.5537 141.454 83.315 141.454 82.5327C141.454 74.6973 140.711 66.8796 139.235 59.1845L138.235 53.9666C138.157 53.5628 138.664 53.3174 138.933 53.6288C168.754 88.2206 167.127 139.884 135.189 172.531L119.799 188.263C119.412 188.659 118.761 188.244 118.956 187.726L120.149 184.553C125.56 170.173 124.953 154.219 118.465 140.292L118.173 139.665C118.139 139.592 118.041 139.579 117.989 139.641C110.307 148.828 95.3445 143.187 95.6403 131.215L95.902 120.62C95.9054 120.481 95.7283 120.42 95.6457 120.532L87.2616 131.844C76.364 146.549 74.1788 165.964 81.5354 182.723C81.6401 182.962 81.3627 183.185 81.1479 183.038C42.9189 156.8 36.4207 102.524 67.809 68.397L69.3785 66.6906C79.774 55.3879 86.175 40.9872 87.5995 25.697Z" fill="white" fill-opacity="0.4"/>
<path fill-rule="evenodd" clip-rule="evenodd" d="M91.5734 18.9758L90.9184 26.0061C89.4253 42.0323 82.5799 57.2611 71.6971 69.0935C41.1627 102.292 46.6707 155.332 83.7865 180.806L80.014 186.303C39.4797 158.482 33.5693 100.7 66.7903 64.5804C76.6987 53.8074 82.9245 39.9418 84.2805 25.3877L85.4668 12.6544C85.7759 9.33648 89.8011 7.86791 92.1743 10.2072L102.949 20.8277C117.115 34.7913 128.721 51.1326 137.237 69.1082L137.412 69.4774C137.06 66.2392 136.576 63.0149 135.962 59.8124L134.961 54.5944C134.24 50.8385 138.96 48.5556 141.458 51.4522C172.409 87.3554 170.721 140.977 137.572 174.862L120.483 192.331C119.195 193.647 117.085 193.67 115.769 192.383C114.453 191.095 114.43 188.985 115.717 187.669L132.806 170.2C160.669 141.719 164.553 98.1949 143.645 65.5138C144.406 71.1522 144.788 76.8379 144.788 82.5326C144.788 86.8708 138.903 88.1943 137.046 84.2739L131.213 71.9627C123.03 54.6921 111.879 38.9915 98.2689 25.5756L91.5734 18.9758Z" fill="white"/>
<path fill-rule="evenodd" clip-rule="evenodd" d="M82.0465 76.5354C83.4997 77.6657 83.7615 79.7599 82.6312 81.2131L78.3275 86.7465C73.7824 92.5901 70.5917 99.3702 68.9857 106.597L68.254 109.89C67.8547 111.687 66.0741 112.82 64.277 112.421C62.4799 112.021 61.3467 110.241 61.7461 108.444L62.4778 105.151C64.2979 96.9604 67.9141 89.2764 73.0651 82.6535L77.3689 77.1201C78.4991 75.667 80.5934 75.4052 82.0465 76.5354Z" fill="white"/>
</g>
<defs>
<linearGradient id="paint0_linear" x1="60.2526" y1="36.8421" x2="138.147" y2="166.316" gradientUnits="userSpaceOnUse">
<stop stop-color="#E6764D"/>
<stop offset="1" stop-color="#FFA825"/>
</linearGradient>
<linearGradient id="paint1_linear" x1="60.2526" y1="36.8421" x2="138.147" y2="166.316" gradientUnits="userSpaceOnUse">
<stop stop-color="#E6764D"/>
<stop offset="1" stop-color="#FFA825"/>
</linearGradient>
</defs>
</svg>
